{"title":"Juliya B  aka Leona Levi - TeenSexMania","uid":10378752,"size":364746065,"categoryP":"porn","categoryS":"movie_clips","magnet":"?xt=urn:btih:2b4cda6b28827811b89ad4cc26207b46cb828b3d&amp;dn=Juliya+B++aka+Leona+Levi+-+TeenSexMania&amp;tr=udp%3A%2F%2Ftracker.openbittorrent.com%3A80&amp;tr=udp%3A%2F%2Fopen.demonii.com%3A1337&amp;tr=udp%3A%2F%2Ftracker.coppersurfer.tk%3A6969&amp;tr=udp%3A%2F%2Fexodus.desync.com%3A6969","seeders":0,"leechers":3,"uploader":"athklym","files":-1,"time":1403040462,"description":" &lt;a href=&quot;http://bayimg.com/KaoIcaaFM&quot; rel=&quot;nofollow&quot; target=&quot;_NEW&quot;&gt;http://bayimg.com/KaoIcaaFM&lt;/a&gt;\nJuliya_B_TeenSexMania.wmv\nFormat                                   : Windows Media\nFile size                                : 348 MiB\nDuration                                 : 23mn 31s\nOverall bit rate mode                    : Constant\nOverall bit rate                         : 2 067 Kbps\nMaximum Overall bit rate                 : 2 115 Kbps\nPerformer                                : Royal-Cash.com\nEncoded date                             : UTC 2014-04-30 13:32:15.437\nCopyright                                : Royal-Cash.com\n\nVideo\nID                                       : 2\nFormat                                   : VC-1\nFormat profile                           : MP@HL\nCodec ID                                 : WMV3\nCodec ID/Info                            : Windows Media Video 9\nCodec ID/Hint                            : WMV3\nDescription of the codec                 : Windows Media Video 9 - Professional\nDuration                                 : 23mn 31s\nBit rate mode                            : Constant\nBit rate                                 : 2 048 Kbps\nWidth                                    : 860 pixels\nHeight                                   : 480 pixels\nDisplay aspect ratio                     : 16:9\nFrame rate                               : 25.000 fps\nColor space                              : YUV\nChroma subsampling                       : 4:2:0\nBit depth                                : 8 bits\nScan type                                : Progressive\nCompression mode                         : Lossy\nBits/(Pixel*Frame)                       : 0.198\nStream size                              : 345 MiB (99%)\nLanguage                                 : Russian\nNumberOfFrames                           : 35274\n\nAudio\nID                                       : 1\nFormat                                   : WMA\nFormat version                           : Version 2\nCodec ID                                 : 161\nCodec ID/Info                            : Windows Media Audio\nDescription of the codec                 : Windows Media Audio 9.2 -  48 kbps, 32 kHz, stereo 1-pass CBR\nDuration                                 : 23mn 31s\nBit rate mode                            : Constant\nBit rate                                 : 48.0 Kbps\nChannel(s)                               : 2 channels\nSampling rate                            : 32.0 KHz\nBit depth                                : 16 bits\nStream size                              : 8.08 MiB (2%)\nLanguage                                 : Russian\nNumberOfFrames                           : 3677\n\n","torrent":{"xt":"urn:btih:2b4cda6b28827811b89ad4cc26207b46cb828b3d","amp;dn":"Juliya+B++aka+Leona+Levi+-+TeenSexMania","amp;tr":["udp%3A%2F%2Ftracker.openbittorrent.com%3A80","udp%3A%2F%2Fopen.demonii.com%3A1337","udp%3A%2F%2Ftracker.coppersurfer.tk%3A6969","udp%3A%2F%2Fexodus.desync.com%3A6969"],"infoHash":"2b4cda6b28827811b89ad4cc26207b46cb828b3d","infoHashBuffer":{"type":"Buffer","data":[43,76,218,107,40,130,120,17,184,154,212,204,38,32,123,70,203,130,139,61]},"announce":[],"urlList":[]}}